<mxfile host="app.diagrams.net" modified="2024-02-26T08:24:33.716Z" agent="Mozilla/5.0 (Windows NT 10.0; Win64; x64) AppleWebKit/537.36 (KHTML, like Gecko) Chrome/121.0.0.0 Safari/537.36" etag="BRoIgRV0Z8ijShsFpQtB" version="23.1.6" type="device">
  <diagram name="Page-1" id="RKGFQZ3N7WevrDwb3Yw2">
    <mxGraphModel dx="1886" dy="1228" grid="0" gridSize="10" guides="1" tooltips="1" connect="1" arrows="1" fold="1" page="0" pageScale="1" pageWidth="850" pageHeight="1100" math="0" shadow="0">
      <root>
        <mxCell id="0" />
        <mxCell id="1" parent="0" />
        <mxCell id="uKmRUU7PerNQsCg-nhcB-11" value="" style="rounded=0;whiteSpace=wrap;html=1;" vertex="1" parent="1">
          <mxGeometry x="530" y="194.5" width="224" height="164" as="geometry" />
        </mxCell>
        <mxCell id="uKmRUU7PerNQsCg-nhcB-2" value="" style="rounded=0;whiteSpace=wrap;html=1;" vertex="1" parent="1">
          <mxGeometry x="257" y="-187" width="238" height="249" as="geometry" />
        </mxCell>
        <mxCell id="uKmRUU7PerNQsCg-nhcB-4" value="&lt;div style=&quot;text-align: center; line-height: 0%;&quot;&gt;&lt;b&gt;Class:&lt;/b&gt; Activity&lt;/div&gt;&lt;div style=&quot;text-align: center;&quot;&gt;&lt;hr&gt;&lt;/div&gt;&lt;div&gt;&lt;b&gt;Attributes:&lt;/b&gt;&lt;/div&gt;&lt;div&gt;_name : string&lt;/div&gt;&lt;div&gt;_activityDescription : string&lt;/div&gt;&lt;div&gt;&lt;hr&gt;&lt;/div&gt;&lt;div&gt;&lt;b&gt;Methods:&lt;/b&gt;&lt;/div&gt;&lt;div&gt;printActivity() : void&lt;/div&gt;&lt;div&gt;printDescription : void&lt;/div&gt;&lt;div&gt;getDuration : int&lt;/div&gt;&lt;div&gt;printEndMessage : void&lt;/div&gt;&lt;div&gt;spinner : void&lt;/div&gt;" style="text;strokeColor=none;fillColor=none;html=1;align=left;verticalAlign=middle;whiteSpace=wrap;rounded=0;fontSize=16;" vertex="1" parent="1">
          <mxGeometry x="284.25" y="-161" width="212.5" height="215" as="geometry" />
        </mxCell>
        <mxCell id="uKmRUU7PerNQsCg-nhcB-12" style="edgeStyle=none;curved=1;rounded=0;orthogonalLoop=1;jettySize=auto;html=1;exitX=0.5;exitY=0;exitDx=0;exitDy=0;fontSize=12;startSize=8;endSize=8;" edge="1" parent="1" source="uKmRUU7PerNQsCg-nhcB-7">
          <mxGeometry relative="1" as="geometry">
            <mxPoint x="495" y="69" as="targetPoint" />
          </mxGeometry>
        </mxCell>
        <mxCell id="uKmRUU7PerNQsCg-nhcB-7" value="&lt;div style=&quot;text-align: center; line-height: 0%;&quot;&gt;&lt;b&gt;Class:&lt;/b&gt;&amp;nbsp;Listening&lt;/div&gt;&lt;div style=&quot;text-align: center;&quot;&gt;&lt;hr&gt;&lt;/div&gt;&lt;div&gt;&lt;b&gt;Attributes:&lt;/b&gt;&lt;/div&gt;&lt;div&gt;_prompts : List&amp;lt;string&amp;gt;&lt;/div&gt;&lt;div&gt;&lt;hr&gt;&lt;/div&gt;&lt;div&gt;&lt;b&gt;Methods:&lt;/b&gt;&lt;/div&gt;&lt;div&gt;printPrompt(): void&lt;/div&gt;&lt;div&gt;getResponse(): string&lt;/div&gt;" style="text;strokeColor=none;fillColor=none;html=1;align=left;verticalAlign=middle;whiteSpace=wrap;rounded=0;fontSize=16;" vertex="1" parent="1">
          <mxGeometry x="546" y="172" width="212.5" height="215" as="geometry" />
        </mxCell>
        <mxCell id="uKmRUU7PerNQsCg-nhcB-8" value="" style="rounded=0;whiteSpace=wrap;html=1;" vertex="1" parent="1">
          <mxGeometry x="2" y="192" width="215" height="169" as="geometry" />
        </mxCell>
        <mxCell id="uKmRUU7PerNQsCg-nhcB-14" style="edgeStyle=none;curved=1;rounded=0;orthogonalLoop=1;jettySize=auto;html=1;exitX=0.5;exitY=0;exitDx=0;exitDy=0;fontSize=12;startSize=8;endSize=8;" edge="1" parent="1" source="uKmRUU7PerNQsCg-nhcB-6">
          <mxGeometry relative="1" as="geometry">
            <mxPoint x="261" y="75" as="targetPoint" />
          </mxGeometry>
        </mxCell>
        <mxCell id="uKmRUU7PerNQsCg-nhcB-6" value="&lt;div style=&quot;text-align: center; line-height: 0%;&quot;&gt;&lt;b&gt;Class:&lt;/b&gt;&amp;nbsp;Breathing&lt;/div&gt;&lt;div style=&quot;text-align: center;&quot;&gt;&lt;hr&gt;&lt;/div&gt;&lt;div&gt;&lt;b&gt;Attributes:&lt;/b&gt;&lt;/div&gt;&lt;div&gt;_name : string&lt;/div&gt;&lt;div&gt;_activityDescription : string&lt;/div&gt;&lt;div&gt;&lt;hr&gt;&lt;/div&gt;&lt;div&gt;&lt;b&gt;Methods:&lt;/b&gt;&lt;/div&gt;&lt;div&gt;printBreaths(): void&lt;/div&gt;" style="text;strokeColor=none;fillColor=none;html=1;align=left;verticalAlign=middle;whiteSpace=wrap;rounded=0;fontSize=16;" vertex="1" parent="1">
          <mxGeometry x="11" y="161" width="212.5" height="215" as="geometry" />
        </mxCell>
        <mxCell id="uKmRUU7PerNQsCg-nhcB-9" value="" style="rounded=0;whiteSpace=wrap;html=1;" vertex="1" parent="1">
          <mxGeometry x="236" y="192" width="247" height="172" as="geometry" />
        </mxCell>
        <mxCell id="uKmRUU7PerNQsCg-nhcB-13" style="edgeStyle=none;curved=1;rounded=0;orthogonalLoop=1;jettySize=auto;html=1;exitX=0.5;exitY=0;exitDx=0;exitDy=0;fontSize=12;startSize=8;endSize=8;" edge="1" parent="1" source="uKmRUU7PerNQsCg-nhcB-5">
          <mxGeometry relative="1" as="geometry">
            <mxPoint x="359" y="72" as="targetPoint" />
          </mxGeometry>
        </mxCell>
        <mxCell id="uKmRUU7PerNQsCg-nhcB-5" value="&lt;div style=&quot;text-align: center; line-height: 0%;&quot;&gt;&lt;b&gt;Class:&lt;/b&gt;&amp;nbsp;Reflection&lt;/div&gt;&lt;div style=&quot;text-align: center;&quot;&gt;&lt;hr&gt;&lt;/div&gt;&lt;div&gt;&lt;b&gt;Attributes:&lt;/b&gt;&lt;/div&gt;&lt;div&gt;_prompts : List&amp;lt;string&amp;gt;&lt;/div&gt;&lt;div&gt;&lt;hr&gt;&lt;/div&gt;&lt;div&gt;&lt;b&gt;Methods:&lt;/b&gt;&lt;/div&gt;&lt;div&gt;printPrompt(): void&lt;/div&gt;&lt;div&gt;printInstructions(): void&lt;/div&gt;&lt;div&gt;PrintQuestions(): void&lt;/div&gt;" style="text;strokeColor=none;fillColor=none;html=1;align=left;verticalAlign=middle;whiteSpace=wrap;rounded=0;fontSize=16;" vertex="1" parent="1">
          <mxGeometry x="252.75" y="172" width="212.5" height="215" as="geometry" />
        </mxCell>
      </root>
    </mxGraphModel>
  </diagram>
</mxfile>
